<?xml version="1.0" encoding="UTF-8" standalone="no"?>
<!-- Created with Inkscape (http://www.inkscape.org/) -->

<svg
   width="1000"
   height="246"
   viewBox="0 0 1000 246"
   version="1.1"
   id="svg5"
   xml:space="preserve"
   xmlns="http://www.w3.org/2000/svg"
   xmlns:svg="http://www.w3.org/2000/svg"><defs
     id="defs2" /><g
     id="layer1"
     style="display:inline;fill:#000000;stroke-width:4.07223"
     transform="scale(0.24556602)"><g
       id="g414"
       style="fill:#000000;fill-opacity:1;stroke-width:4.07223"><g
         id="g3824"
         style="display:inline;fill:#000000;fill-opacity:1;stroke-width:4.07223"><path
           id="rect700-1-5"
           style="fill:#000000;fill-opacity:1;stroke-width:18.4006"
           d="M 0,0 V 70 H 749.72852 L 790.14258,0 Z" /><path
           id="rect700-1-5-1"
           style="fill:#000000;fill-opacity:1;stroke-width:14.7204"
           d="m 0,220 v 70 h 541.85742 l 0.56446,-0.67969 L 582.44336,220 Z" /><rect
           style="fill:#000000;fill-opacity:1;stroke-width:21.2471"
           id="rect700-1"
           width="70"
           height="1000"
           x="0"
           y="0" /></g><g
         id="g3918-3-4"
         transform="translate(-50.228477,-40)"
         style="display:inline;fill:#000000;fill-opacity:1;stroke-width:4.07223"><path
           id="rect700-1-5-1-9-9-4-4"
           style="fill:#000000;fill-opacity:1;stroke-width:14.7204"
           d="m 756.93572,71.051196 0.002,692.819344 69.99921,-40.41406 -10e-4,-652.404942 z m 0.001,719.377574 -4.6e-4,0.16716 69.99921,-40.41406 4.6e-4,-0.16716 z"
           transform="rotate(30)" /><path
           id="rect700-1-5-1-9-7-9"
           style="fill:#000000;fill-opacity:1;stroke-width:14.7204"
           d="m 363.18356,440 -40.41407,70 h 64.39258 152.57227 40.41406 23.97851 40.41407 10.22656 5.72461 l 39.50781,-68.42774 V 440 H 644.54098 620.56246 580.1484 427.57613 Z" /></g><g
         id="g3918-3-4-0"
         transform="translate(299.99952,-220)"
         style="display:inline;fill:#000000;fill-opacity:1;stroke-width:4.07223"><path
           id="rect700-1-5-1-9-9-4-4-2"
           style="fill:#000000;fill-opacity:1;stroke-width:14.7204"
           d="m 756.93573,71.051188 10e-4,719.544732 69.99921,-40.41406 -8.2e-4,-679.13033 z"
           transform="rotate(30)" /><path
           id="rect700-1-5-1-9-7-9-7"
           style="fill:#000000;fill-opacity:1;stroke-width:14.7204"
           d="m 363.18356,440 -40.41407,70 h 64.39258 152.57227 40.41406 23.97851 40.41407 10.22656 5.72461 l 39.50781,-68.42774 V 440 H 644.54098 620.56246 580.1484 427.57613 Z" /></g><g
         id="g4031"
         style="display:inline;fill:#000000;fill-opacity:1;stroke-width:4.07223"><path
           id="rect700-1-5-1-9-55-4"
           style="display:none;fill:#000000;fill-opacity:1;stroke-width:14.7204"
           d="M 510.41406,930 470,1000 h 231.67773 l -0.15039,0.2598 H 979.86328 V 930.25977 H 748.33594 V 930 Z" /><rect
           style="fill:#000000;fill-opacity:1;stroke-width:14.7204"
           id="rect700-1-5-1-9-55"
           width="220"
           height="70"
           x="780"
           y="-1000"
           transform="rotate(90)" /><rect
           style="fill:#000000;fill-opacity:1;stroke-width:14.7204"
           id="rect700-1-5-1-9-55-2"
           width="220"
           height="70"
           x="-1000"
           y="-1000"
           transform="scale(-1)" /></g></g><g
       id="g682"
       style="display:inline;fill:#000000;fill-opacity:1;stroke-width:4.07223"><path
         id="text545"
         style="font-size:466.667px;font-family:'Century Gothic';-inkscape-font-specification:'Century Gothic';display:inline;fill:#000000;fill-opacity:1;stroke-width:285.055"
         d="m 3300.8984,629 -4.1074,8.92773 h -0.01 l -2.5624,5.59571 -5.1075,11.10351 0.025,-0.0117 L 3140,980.20898 h 36.9961 l 51.8848,-112.61914 h 143.0214 l 52.1094,112.61914 h 35.6426 l -154.6914,-342.14453 -0.062,-0.13672 z m -764.582,7.5918 c -31.2934,0 -60.3835,7.824 -87.2715,23.4707 -26.888,15.49478 -48.1561,36.99068 -63.8027,64.48633 -15.4948,27.49565 -23.2422,57.34592 -23.2422,89.55078 0,48.30727 17.0899,89.47418 51.2695,123.50195 34.1797,34.02777 76.1068,51.04297 125.7813,51.04297 49.0668,0 90.6148,-17.08985 124.6426,-51.26953 34.1796,-34.17968 51.2695,-75.80427 51.2695,-124.87109 0,-49.52255 -17.0899,-91.2218 -51.2695,-125.09766 -34.1797,-33.87586 -76.6392,-50.81445 -127.377,-50.81445 z m -1245.3633,8.43164 v 335.18945 h 33.2676 V 815.92188 h 134.668 v -33.04102 h -134.668 V 678.06445 h 134.668 v -33.04101 z m 239.0469,0 v 335.18945 h 33.4961 V 645.02344 Z m 140,0 v 335.18945 h 162.4668 V 947.85547 H 1703.7246 V 645.02344 Z m 175,0 v 32.58594 h 74.9668 v 302.60351 h 34.1797 V 677.60938 h 74.7402 v -32.58594 z m 252,0 v 335.18945 h 33.4961 V 824.35352 h 19.1406 l 120.3125,155.85937 h 41.4707 l -120.539,-155.85937 c 28.1032,-0.15192 50.1295,-3.7231 66.08,-10.71094 15.9506,-7.13976 28.1787,-17.62153 36.6856,-31.44531 8.6588,-13.82378 12.9883,-29.84897 12.9883,-48.07813 0,-21.87499 -6.227,-40.25738 -18.6836,-55.14453 -12.4566,-15.03906 -28.635,-24.83724 -48.5352,-29.39453 -13.2161,-3.03819 -38.4344,-4.55664 -75.6523,-4.55664 z m 653,0 94.5645,335.18945 h 6.3789 l 101.4004,-253.61328 99.3496,253.61328 h 6.3789 l 96.1601,-335.18945 h -34.1797 l -69.5,241.53711 -95.0195,-241.53711 h -6.8359 l -96.1582,241.53711 -68.1309,-241.53711 z M 3601,646 v 31.67383 h 160.6445 l -154.9472,297.81836 27.5703,14.12695 L 3813.5977,646 Z m 258.627,0 v 31.67383 h 160.6445 l -154.9492,297.81836 27.5722,14.12695 L 4072.2246,646 Z m -1321.7149,23.4043 c 25.2171,0 49.0662,6.45681 71.5488,19.36914 22.4826,12.91232 39.877,30.15344 52.1817,51.72461 12.4566,21.41926 18.6836,45.42166 18.6836,72.00586 0,26.7361 -6.227,51.04102 -18.6836,72.91601 -12.3047,21.87499 -29.5478,39.11806 -51.7266,51.72656 -22.0269,12.60851 -46.0273,18.91211 -72.0039,18.91211 -38.8888,0 -72.1571,-13.67188 -99.8047,-41.01562 -27.4956,-27.49565 -41.2441,-61.14303 -41.2441,-100.94336 0,-26.88801 6.2289,-51.26953 18.6855,-73.14453 12.4566,-21.87499 29.7744,-39.26932 51.9532,-52.18164 22.1788,-12.91233 45.6489,-19.36914 70.4101,-19.36914 z m -407.416,8.43164 h 59.0176 c 22.9383,0 39.3446,1.97418 49.2187,5.92383 9.8742,3.94965 17.8495,10.55772 23.9258,19.82421 6.0764,9.11458 9.1133,19.29385 9.1133,30.53516 0,11.54514 -3.0369,22.02691 -9.1133,31.44531 -5.9245,9.26649 -14.2808,16.02582 -25.0664,20.2793 -10.6337,4.25347 -27.1146,6.38086 -49.4453,6.38086 l -57.6504,-0.45703 z m 1170.3457,32.6914 56.3965,124.01954 h -113.4688 z" /><path
         id="path2824-5-1"
         style="font-size:461.998px;font-family:Corbel;-inkscape-font-specification:Corbel;display:inline;fill:#000000;fill-opacity:1;stroke-width:285.057"
         d="m 3912.899,0 -4.1074,8.928702 h -0.01 l -2.5625,5.59454 -5.1074,11.104467 0.025,-0.01207 L 3752,351.209 h 36.9961 l 51.8847,-112.6201 h 143.0215 l 52.1094,112.6201 h 35.6426 L 3916.9629,9.063678 l -0.062,-0.134977 z m -0.057,81.526776 56.3965,124.020694 H 3855.7697 Z M 3187.0718,0 l -4.1074,8.9287022 h -0.01 l -2.5625,5.5945398 -5.1074,11.104467 0.025,-0.01207 L 3026.1728,351.209 h 36.9961 l 51.8847,-112.6201 h 143.0215 l 52.1094,112.6201 h 35.6426 L 3191.1357,9.063678 l -0.062,-0.1349768 z m -0.057,81.526776 56.3965,124.020694 H 3129.9425 Z M 1669.0371,0 l -4.1074,8.9287018 h -0.01 l -2.5625,5.5945402 -5.1074,11.104467 0.025,-0.01207 L 1508.1381,351.209 h 36.9961 l 51.8847,-112.6201 h 143.0215 l 52.1094,112.6201 h 35.6426 L 1673.101,9.063678 1673.039,8.9287008 Z m -0.057,81.526776 56.3965,124.020694 h -113.4688 z m 715.7816,-70.499432 c -51.2829,0 -93.9924,16.617365 -128.1308,49.853515 -33.9881,33.085761 -50.9825,73.916281 -50.9825,122.492191 0,46.16967 14.0607,85.57244 42.1836,118.20703 33.537,38.65018 79.3304,57.97461 137.3809,57.97461 30.5291,0 58.1271,-5.71491 82.791,-17.14453 24.8143,-11.58002 45.4923,-27.8966 62.0352,-48.95118 l -26.168,-19.85156 c -31.2811,36.39434 -70.1565,54.5918 -116.627,54.5918 -42.2595,0 -77.3009,-13.5353 -105.123,-40.60547 -27.6717,-27.07017 -41.5078,-60.83225 -41.5078,-101.28711 0,-26.76939 6.1661,-50.83215 18.498,-72.1875 12.4824,-21.505743 30.0021,-38.574286 52.5606,-51.207031 22.5584,-12.783134 47.0724,-19.175781 73.541,-19.175781 24.2128,0 46.3966,4.888724 66.5488,14.664063 20.3026,9.624948 37.672,23.836038 52.1094,42.634769 l 26.168,-20.076176 C 2514.0977,58.851681 2493.6444,41.706966 2468.6797,29.525391 2443.715,17.193425 2415.742,11.027344 2384.7617,11.027344 Z M 1264.5078,19.373047 V 351.20898 h 33.8379 V 196.45703 l 145.7266,154.75195 h 43.9902 L 1316.166,168.25977 1475.6543,19.373047 h -44.8906 L 1298.3457,143.89648 V 19.373047 Z m 614.9434,0 V 351.20898 h 34.289 v -250.8496 l 218.8184,250.8496 h 7.4434 V 19.373047 h -32.709 V 273.38281 L 1886.6699,19.373047 Z m 717.3613,0 V 351.20898 H 2785.627 V 318.5 H 2629.9727 V 188.33594 H 2785.627 V 155.85156 H 2629.9727 V 52.083984 h 157.0078 V 19.373047 Z m 247.4668,0 V 351.20898 h 160.8418 v -32.0332 H 2877.666 V 19.373047 Z m 830.8281,0 V 351.20898 h 33.1621 V 19.373047 Z m -273.8594,0 V 351.20898 h 33.1602 V 196.9082 h 18.9492 l 119.1094,154.30078 h 41.0566 L 3494.1895,196.9082 c 27.8219,-0.15039 49.6289,-3.68365 65.4199,-10.60156 15.7909,-7.0683 27.8965,-17.44541 36.3183,-31.13086 8.5723,-13.68545 12.8594,-29.55287 12.8594,-47.59961 0,-21.656084 -6.1661,-39.85167 -18.498,-54.589842 -12.332,-14.888562 -28.3498,-24.589878 -48.0508,-29.101562 -13.0839,-3.007791 -38.0492,-4.511719 -74.8945,-4.511719 z m 33.1602,32.484375 h 58.4277 c 22.7089,0 38.9513,1.955107 48.7266,5.865234 9.7753,3.910128 17.6702,10.453194 23.6855,19.626953 6.0156,9.023372 9.0235,19.097742 9.0235,30.226561 0,11.42961 -3.0079,21.80671 -9.0235,31.13086 -5.865,9.17376 -14.1367,15.86721 -24.8144,20.07813 -10.5273,4.21089 -26.8439,6.3164 -48.9512,6.3164 l -57.0742,-0.45117 z" /></g></g></svg>
